<svg width="578" height="459" xmlns="http://www.w3.org/2000/svg" preserveAspectRatio="xMidYMid meet">
 <metadata>Created by potrace 1.12, written by Peter Selinger 2001-2015</metadata>
 <g>
  <title>Layer 1</title>
  <g transform="translate(0,459) scale(0.10000000149011612,-0.10000000149011612) " fill="#000000" id="svg_1">
   <path d="m3374,4241c-83,-47 -219,-124 -303,-171l-151,-85l0,-1361l0,-1361l163,-96c89,-52 304,-177 477,-277c173,-100 346,-201 385,-224c38,-22 73,-42 77,-44c4,-2 179,97 390,219c211,122 458,266 550,318l167,96l1,630l0,630l-22,14c-232,146 -1070,651 -1081,651c-9,0 -402,-233 -459,-272c-14,-10 -29,-18 -32,-18c-3,0 -7,323 -8,719l-3,718l-151,-86zm753,-1823c50,-29 160,-93 246,-143l157,-90l0,-286l0,-287l-25,-16c-72,-47 -469,-276 -479,-276c-6,0 -70,35 -142,78c-71,42 -181,106 -242,142l-112,65l0,291l0,290l243,142c133,78 247,141 253,142c7,0 52,-24 101,-52z" id="svg_2" fill="#1ABC9C"/>
   <path d="m1283,2986c-175,-106 -424,-257 -553,-337l-235,-144l0,-629l0,-629l130,-75c72,-41 310,-180 531,-308c221,-128 412,-238 425,-244c25,-11 94,27 879,485c74,43 159,92 188,108c28,16 52,32 52,35c0,9 -584,342 -598,342c-6,0 -100,-52 -209,-117c-283,-166 -277,-163 -292,-163c-8,0 -124,64 -257,143l-243,142l-1,291l0,292l113,64c61,36 171,99 243,142c72,42 138,76 146,76c8,0 43,-17 79,-38c140,-84 417,-242 422,-242c8,0 580,310 590,320c11,9 -77,64 -810,508l-281,170l-319,-192z" id="svg_3" fill="#1ABC9C"/>
  </g>
 </g>
</svg>